{"title":"The Right Kind Of Wrong 1080p WEB-DL 6CH x264 Pimp4003","uid":9611232,"size":2606187703,"categoryP":"video","categoryS":"hd___movies","magnet":"?xt=urn:btih:5015861e7e251d8104aee8305f85219191083819&amp;dn=The+Right+Kind+Of+Wrong+1080p+WEB-DL+6CH+x264+Pimp4003&amp;tr=udp%3A%2F%2Ftracker.openbittorrent.com%3A80&amp;tr=udp%3A%2F%2Fopen.demonii.com%3A1337&amp;tr=udp%3A%2F%2Ftracker.coppersurfer.tk%3A6969&amp;tr=udp%3A%2F%2Fexodus.desync.com%3A6969","seeders":2,"leechers":0,"uploader":"shawnmurthy","files":-1,"time":1392323170,"description":"Get all Pimp4003 newest releases first at \n &lt;a href=&quot;\nhttp://WWW.PIMP4003.NET&quot; rel=&quot;nofollow&quot; target=&quot;_NEW&quot;&gt;\nhttp://WWW.PIMP4003.NET&lt;/a&gt; with VIP downloads speed\n\nRegister here and you can chat, request movies, view upcoming uploads and much more\n\nUPLOAD UNLIMITED IMAGES AND UP TO 10MB IN FILE SIZES FOR FREE....\n &lt;a href=&quot;\nhttp://www.piczhub.com&quot; rel=&quot;nofollow&quot; target=&quot;_NEW&quot;&gt;\nhttp://www.piczhub.com&lt;/a&gt;\n\nPIMP4003 AND PIMPRG PRESENTS\n\nThe Right Kind Of Wrong 1080p WEB-DL 6CH x264 Pimp4003\n &lt;a href=&quot;\nhttp://www.imdb.com/title/tt2286990/&quot; rel=&quot;nofollow&quot; target=&quot;_NEW&quot;&gt;\nhttp://www.imdb.com/title/tt2286990/&lt;/a&gt;\n\nLeo the dishwasher falls in love with a bride on the day of her wedding - to another man.\n\nDirector: Jeremiah S. Chechik\nWriters: Megan Martin (screenplay), Tim Sandlin (novel)\nStars: Ryan Kwanten, Kristen Hager, Sara Canning | See full cast and crew Â»\n\nVideo\nID                                       : 1\nFormat                                   : AVC\nFormat/Info                              : Advanced Video Codec\nFormat profile                           : &lt;a class=&quot;__cf_email__&quot; href=&quot;/cdn-cgi/l/email-protection&quot; data-cfemail=&quot;0e436f67604e423a203e&quot;&gt;[email&amp;#160;protected]&lt;/a&gt;&lt;script cf-hash='f9e31' type=&quot;text/javascript&quot;&gt;\n/* &lt;![CDATA[ */!function(){try{var t=&quot;currentScript&quot;in document?document.currentScript:function(){for(var t=document.getElementsByTagName(&quot;script&quot;),e=t.length;e--;)if(t[e].getAttribute(&quot;cf-hash&quot;))return t[e]}();if(t&amp;&amp;t.previousSibling){var e,r,n,i,c=t.previousSibling,a=c.getAttribute(&quot;data-cfemail&quot;);if(a){for(e=&quot;&quot;,r=parseInt(a.substr(0,2),16),n=2;a.length-n;n+=2)i=parseInt(a.substr(n,2),16)^r,e+=String.fromCharCode(i);e=document.createTextNode(e),c.parentNode.replaceChild(e,c)}}}catch(u){}}();/* ]]&gt; */&lt;/script&gt;\nFormat settings, CABAC                   : Yes\nFormat settings, ReFrames                : 4 frames\nCodec ID                                 : avc1\nCodec ID/Info                            : Advanced Video Coding\nDuration                                 : 1h 37mn\nBit rate                                 : 3 187 Kbps\nWidth                                    : 1 912 pixels\nHeight                                   : 788 pixels\nDisplay aspect ratio                     : 2.40:1\nFrame rate mode                          : Variable\nFrame rate                               : 23.976 fps\nMinimum frame rate                       : 23.810 fps\nMaximum frame rate                       : 1 000.000 fps\nColor space                              : YUV\nChroma subsampling                       : 4:2:0\nBit depth                                : 8 bits\nScan type                                : Progressive\nBits/(Pixel*Frame)                       : 0.088\nStream size                              : 2.16 GiB (89%)\nWriting library                          : x264 core 130 r2273 b3065e6\nEncoding settings                        : cabac=1 / ref=1 / deblock=1:0:0 / analyse=0x1:0x111 / me=hex / subme=2 / psy=1 / psy_rd=1.00:0.00 / mixed_ref=0 / me_range=16 / chroma_me=1 / trellis=0 / 8x8dct=0 / cqm=0 / deadzone=21,11 / fast_pskip=1 / chroma_qp_offset=0 / threads=12 / lookahead_threads=4 / sliced_threads=0 / nr=0 / decimate=1 / interlaced=0 / bluray_compat=0 / constrained_intra=0 / bframes=3 / b_pyramid=2 / b_adapt=1 / b_bias=0 / direct=1 / weightb=1 / open_gop=0 / weightp=1 / keyint=240 / keyint_min=24 / scenecut=40 / intra_refresh=0 / rc_lookahead=10 / rc=crf / mbtree=1 / crf=20.0 / qcomp=0.60 / qpmin=0 / qpmax=69 / qpstep=4 / vbv_maxrate=20000 / vbv_bufsize=25000 / crf_max=0.0 / nal_hrd=none / ip_ratio=1.40 / aq=1:1.00\nEncoded date                             : UTC 2014-02-11 19:17:47\nTagged date                              : UTC 2014-02-11 20:06:58\nColor primaries                          : BT.709\nTransfer characteristics                 : BT.709\nMatrix coefficients                      : BT.709\n\nAudio\nID                                       : 2\nFormat                                   : AAC\nFormat/Info                              : Advanced Audio Codec\nFormat profile                           : LC\nCodec ID                                 : 40\nDuration                                 : 1h 37mn\nBit rate mode                            : Variable\nBit rate                                 : 384 Kbps\nMaximum bit rate                         : 673 Kbps\nChannel(s)                               : 6 channels\nChannel positions                        : Front: L C R, Side: L R, LFE\nSampling rate                            : 48.0 KHz\nCompression mode                         : Lossy\nStream size                              : 267 MiB (11%)\nLanguage                                 : English\nEncoded date                             : UTC 2014-02-11 19:17:47\nTagged date                              : UTC 2014-02-11 20:06:58\n\nMenu\nID                                       : 3\nCodec ID                                 : text\nDuration                                 : 1h 37mn\nEncoded date                             : UTC 2014-02-11 19:17:47\nTagged date                              : UTC 2014-02-11 20:06:58\nBit rate mode                            : VBR\n &lt;a href=&quot;\nhttp://someimage.com/5YmqM2R&quot; rel=&quot;nofollow&quot; target=&quot;_NEW&quot;&gt;\nhttp://someimage.com/5YmqM2R&lt;/a&gt; &lt;a href=&quot;\nhttp://someimage.com/miZANGi&quot; rel=&quot;nofollow&quot; target=&quot;_NEW&quot;&gt;\nhttp://someimage.com/miZANGi&lt;/a&gt; &lt;a href=&quot;\nhttp://someimage.com/y00cGjd&quot; rel=&quot;nofollow&quot; target=&quot;_NEW&quot;&gt;\nhttp://someimage.com/y00cGjd&lt;/a&gt; &lt;a href=&quot;\nhttp://someimage.com/UPf8Itl&quot; rel=&quot;nofollow&quot; target=&quot;_NEW&quot;&gt;\nhttp://someimage.com/UPf8Itl&lt;/a&gt;\n","torrent":{"xt":"urn:btih:5015861e7e251d8104aee8305f85219191083819","amp;dn":"The+Right+Kind+Of+Wrong+1080p+WEB-DL+6CH+x264+Pimp4003","amp;tr":["udp%3A%2F%2Ftracker.openbittorrent.com%3A80","udp%3A%2F%2Fopen.demonii.com%3A1337","udp%3A%2F%2Ftracker.coppersurfer.tk%3A6969","udp%3A%2F%2Fexodus.desync.com%3A6969"],"infoHash":"5015861e7e251d8104aee8305f85219191083819","infoHashBuffer":{"type":"Buffer","data":[80,21,134,30,126,37,29,129,4,174,232,48,95,133,33,145,145,8,56,25]},"announce":[],"urlList":[]}}